<svg version="1.1" id="Layer_1" xmlns="http://www.w3.org/2000/svg" xmlns:xlink="http://www.w3.org/1999/xlink" x="0px" y="0px"
	 width="100%" viewBox="0 0 400 400" enable-background="new 0 0 400 400" xml:space="preserve">
<path fill="#DD344C" opacity="1.000000" stroke="none" 
	d="
M228.000000,401.000000 
	C152.023590,401.000000 76.547180,401.000000 1.035385,401.000000 
	C1.035385,267.731934 1.035385,134.463837 1.035385,1.097874 
	C134.226349,1.097874 267.452820,1.097874 400.839630,1.097874 
	C400.839630,134.333176 400.839630,267.666565 400.839630,401.000000 
	C343.463898,401.000000 285.981964,401.000000 228.000000,401.000000 
M204.341812,344.507568 
	C194.297394,344.338867 184.253296,344.127991 174.208176,344.050018 
	C172.811066,344.039154 171.408875,344.683044 170.655151,345.541626 
	C180.037796,345.694397 189.420151,345.909943 198.803284,345.951050 
	C200.864441,345.960083 202.928329,345.349213 204.341812,344.507568 
M120.424522,234.878494 
	C119.673782,234.596771 118.923859,234.071640 118.172188,234.069138 
	C101.933678,234.015045 85.694794,233.988342 69.456665,234.078400 
	C68.312157,234.084732 67.172890,235.035614 66.011642,236.408279 
	C66.011642,240.340485 66.011642,244.272705 66.011642,248.316574 
	C84.630516,248.316574 102.670670,248.316574 120.969269,248.316574 
	C120.969269,243.840302 120.969269,239.693893 120.424522,234.878494 
M323.954712,252.794876 
	C323.959534,248.712418 323.964386,244.629944 323.424500,239.878494 
	C322.673767,239.596771 321.923859,239.071640 321.172180,239.069138 
	C304.933624,239.015060 288.694733,238.988358 272.456573,239.078430 
	C271.312073,239.084763 270.172821,240.035660 269.012665,241.402634 
	C269.026520,245.493378 269.040344,249.584122 269.597900,254.315872 
	C270.381165,254.537689 271.163971,254.951080 271.947784,254.953094 
	C288.096710,254.994690 304.245880,255.017136 320.394470,254.936661 
	C321.580353,254.930771 322.762207,254.114365 323.954712,252.794876 
M264.011658,310.408325 
	C264.011658,314.340515 264.011658,318.272705 264.011658,322.310852 
	C282.630585,322.310852 300.670715,322.310852 318.969208,322.310852 
	C318.969208,317.837799 318.969208,313.692627 318.424438,308.878510 
	C317.673676,308.596802 316.923767,308.071686 316.172089,308.069183 
	C299.933624,308.015106 283.694794,307.988403 267.456726,308.078491 
	C266.312225,308.084839 265.172974,309.035645 264.011658,310.408325 
M71.000336,50.622360 
	C71.000336,66.699692 71.000336,82.777031 71.000336,98.742691 
	C153.713318,98.742691 235.643646,98.742691 317.691528,98.742691 
	C317.691528,80.763603 317.691528,63.042976 317.691528,45.174149 
	C235.453461,45.174149 153.523590,45.174149 71.266136,45.174149 
	C71.171631,46.766613 71.086006,48.209332 71.000336,50.622360 
M202.113724,146.800781 
	C203.948273,153.146500 209.844315,150.040573 212.876602,151.086517 
	C205.721832,158.286652 198.514725,165.539429 192.292816,171.800766 
	C185.509293,165.013824 178.325027,157.825943 171.499191,150.996674 
	C172.536438,150.996674 174.516174,151.059311 176.490509,150.982666 
	C179.830322,150.852997 181.892075,149.093384 181.944138,145.734650 
	C182.069839,137.624603 181.984924,129.511292 181.984924,121.284409 
	C178.438889,121.284409 175.383133,121.284409 171.810684,121.284409 
	C171.810684,127.969696 171.810684,134.369598 171.810684,140.986023 
	C167.140015,140.986023 162.954681,140.656128 158.858963,141.119049 
	C156.666122,141.366913 153.579193,142.490921 152.820206,144.117508 
	C152.090530,145.681274 153.183960,149.039474 154.609207,150.514709 
	C165.370575,161.653610 176.434402,172.499695 187.350784,183.489838 
	C190.624756,186.785919 193.591980,186.581726 196.786987,183.361160 
	C207.696548,172.364258 218.750076,161.508469 229.531311,150.388092 
	C230.887955,148.988785 232.046799,145.749359 231.333084,144.406204 
	C230.430252,142.707214 227.593597,141.376053 225.450287,141.134399 
	C221.087265,140.642441 216.629898,140.987213 211.881821,140.987213 
	C211.881821,133.983429 211.881821,127.707703 211.881821,121.265358 
	C208.477081,121.265358 205.421799,121.265358 202.020920,121.265358 
	C202.020920,129.669067 202.020920,137.796570 202.113724,146.800781 
M198.500000,242.000305 
	C186.075119,242.000305 173.650238,242.000305 161.395706,242.000305 
	C161.395706,245.741959 161.395706,248.797318 161.395706,251.746307 
	C191.388184,251.746307 220.984772,251.746307 250.695862,251.746307 
	C250.695862,248.432770 250.695862,245.378723 250.695862,242.000305 
	C233.429504,242.000305 216.464752,242.000305 198.500000,242.000305 
M161.124817,300.182312 
	C165.277969,300.788086 169.420807,301.814362 173.586334,301.916656 
	C183.889999,302.169708 194.204071,301.999725 204.513962,301.999725 
	C208.269760,301.999725 212.025543,301.999725 215.609192,301.999725 
	C215.609192,298.259430 215.609192,295.207886 215.609192,292.392944 
	C197.189728,292.392944 179.162567,292.392944 161.019424,292.392944 
	C161.019424,294.943878 161.019424,297.103088 161.124817,300.182312 
M89.500206,320.999725 
	C97.592628,320.999725 105.685051,320.999725 113.606697,320.999725 
	C113.606697,317.260956 113.606697,314.206390 113.606697,311.252625 
	C98.614792,311.252625 84.016914,311.252625 69.301758,311.252625 
	C69.301758,314.564148 69.301758,317.617401 69.301758,320.999725 
	C75.899124,320.999725 82.199791,320.999725 89.500206,320.999725 
M171.525955,217.000305 
	C168.094589,217.000305 164.663223,217.000305 161.388199,217.000305 
	C161.388199,220.729309 161.388199,223.783905 161.388199,226.751312 
	C176.375473,226.751312 190.973846,226.751312 205.702316,226.751312 
	C205.702316,223.444199 205.702316,220.390945 205.702316,217.000305 
	C194.445770,217.000305 183.482941,217.000305 171.525955,217.000305 
M130.459747,275.999725 
	C133.560135,275.999725 136.660538,275.999725 139.616333,275.999725 
	C139.616333,272.279358 139.616333,269.224701 139.616333,266.245422 
	C124.632957,266.245422 110.033951,266.245422 95.294403,266.245422 
	C95.294403,269.549011 95.294403,272.602325 95.294403,275.999725 
	C106.880661,275.999725 118.176506,275.999725 130.459747,275.999725 
M257.500092,266.000275 
	C250.406281,266.000275 243.312469,266.000275 236.394043,266.000275 
	C236.394043,269.740417 236.394043,272.795013 236.394043,275.746704 
	C251.386688,275.746704 265.984558,275.746704 280.697540,275.746704 
	C280.697540,272.433960 280.697540,269.381287 280.697540,266.000275 
	C273.099365,266.000275 265.799683,266.000275 257.500092,266.000275 
M163.738541,276.996887 
	C172.686462,276.996887 181.634399,276.996887 190.698456,276.996887 
	C190.698456,273.437866 190.698456,270.383881 190.698456,267.345520 
	C180.667862,267.345520 170.942398,267.345520 160.069962,267.345520 
	C161.093018,270.971802 161.940689,273.976410 163.738541,276.996887 
M236.138000,300.215881 
	C240.300354,300.559845 244.462708,300.903809 248.651413,301.249939 
	C248.651413,297.342407 248.651413,294.286621 248.651413,291.395844 
	C244.238678,291.395844 240.181000,291.395844 236.021439,291.395844 
	C236.021439,294.287445 236.021439,296.783813 236.138000,300.215881 
M172.051254,334.099396 
	C171.964462,334.301392 171.851196,334.498535 171.812592,334.709351 
	C171.804581,334.753021 172.073776,334.909576 172.215332,334.909729 
	C182.639053,334.919403 193.062775,334.918549 203.486511,334.918549 
	C203.486755,334.621979 203.487015,334.325439 203.487259,334.028870 
	C193.237839,334.028870 182.988434,334.028870 172.051254,334.099396 
z"/>
<path fill="#FFFFFF" opacity="1.000000" stroke="none" 
	d="
M71.000366,50.137207 
	C71.086006,48.209332 71.171631,46.766613 71.266136,45.174149 
	C153.523590,45.174149 235.453461,45.174149 317.691528,45.174149 
	C317.691528,63.042976 317.691528,80.763603 317.691528,98.742691 
	C235.643646,98.742691 153.713318,98.742691 71.000336,98.742691 
	C71.000336,82.777031 71.000336,66.699692 71.000366,50.137207 
M131.500000,55.000000 
	C114.745888,55.000000 97.991768,55.000000 81.397491,55.000000 
	C81.397491,66.753998 81.397491,77.810799 81.397491,88.741852 
	C157.055771,88.741852 232.316315,88.741852 307.690918,88.741852 
	C307.690918,77.427017 307.690918,66.372757 307.690918,55.000000 
	C249.088272,55.000000 190.794128,55.000000 131.500000,55.000000 
z"/>
<path fill="#FEF9FA" opacity="1.000000" stroke="none" 
	d="
M202.067322,146.362427 
	C202.020920,137.796570 202.020920,129.669067 202.020920,121.265358 
	C205.421799,121.265358 208.477081,121.265358 211.881821,121.265358 
	C211.881821,127.707703 211.881821,133.983429 211.881821,140.987213 
	C216.629898,140.987213 221.087265,140.642441 225.450287,141.134399 
	C227.593597,141.376053 230.430252,142.707214 231.333084,144.406204 
	C232.046799,145.749359 230.887955,148.988785 229.531311,150.388092 
	C218.750076,161.508469 207.696548,172.364258 196.786987,183.361160 
	C193.591980,186.581726 190.624756,186.785919 187.350784,183.489838 
	C176.434402,172.499695 165.370575,161.653610 154.609207,150.514709 
	C153.183960,149.039474 152.090530,145.681274 152.820206,144.117508 
	C153.579193,142.490921 156.666122,141.366913 158.858963,141.119049 
	C162.954681,140.656128 167.140015,140.986023 171.810684,140.986023 
	C171.810684,134.369598 171.810684,127.969696 171.810684,121.284409 
	C175.383133,121.284409 178.438889,121.284409 181.984924,121.284409 
	C181.984924,129.511292 182.069839,137.624603 181.944138,145.734650 
	C181.892075,149.093384 179.830322,150.852997 176.490509,150.982666 
	C174.516174,151.059311 172.536438,150.996674 171.499191,150.996674 
	C178.325027,157.825943 185.509293,165.013824 192.292816,171.800766 
	C198.514725,165.539429 205.721832,158.286652 212.876602,151.086517 
	C209.844315,150.040573 203.948273,153.146500 202.067322,146.362427 
z"/>
<path fill="#FFFFFF" opacity="1.000000" stroke="none" 
	d="
M199.000000,242.000305 
	C216.464752,242.000305 233.429504,242.000305 250.695862,242.000305 
	C250.695862,245.378723 250.695862,248.432770 250.695862,251.746307 
	C220.984772,251.746307 191.388184,251.746307 161.395706,251.746307 
	C161.395706,248.797318 161.395706,245.741959 161.395706,242.000305 
	C173.650238,242.000305 186.075119,242.000305 199.000000,242.000305 
z"/>
<path fill="#FDF8F9" opacity="1.000000" stroke="none" 
	d="
M318.969208,309.547455 
	C318.969208,313.692627 318.969208,317.837799 318.969208,322.310852 
	C300.670715,322.310852 282.630585,322.310852 264.011658,322.310852 
	C264.011658,318.272705 264.011658,314.340515 264.487915,309.926636 
	C282.965851,309.479126 300.967529,309.513275 318.969208,309.547455 
z"/>
<path fill="#FDF8F9" opacity="1.000000" stroke="none" 
	d="
M323.969238,240.547485 
	C323.964386,244.629944 323.959534,248.712418 323.486755,253.270050 
	C305.030609,253.721771 287.042419,253.698318 269.054199,253.674866 
	C269.040344,249.584122 269.026520,245.493378 269.488373,240.923782 
	C287.965790,240.479126 305.967529,240.513306 323.969238,240.547485 
z"/>
<path fill="#FDF8F9" opacity="1.000000" stroke="none" 
	d="
M120.969269,235.547485 
	C120.969269,239.693893 120.969269,243.840302 120.969269,248.316574 
	C102.670670,248.316574 84.630516,248.316574 66.011642,248.316574 
	C66.011642,244.272705 66.011642,240.340485 66.487885,235.926605 
	C84.965843,235.479111 102.967560,235.513306 120.969269,235.547485 
z"/>
<path fill="#FFFFFF" opacity="1.000000" stroke="none" 
	d="
M161.072113,299.722290 
	C161.019424,297.103088 161.019424,294.943878 161.019424,292.392944 
	C179.162567,292.392944 197.189728,292.392944 215.609192,292.392944 
	C215.609192,295.207886 215.609192,298.259430 215.609192,301.999725 
	C212.025543,301.999725 208.269760,301.999725 204.513962,301.999725 
	C194.204071,301.999725 183.889999,302.169708 173.586334,301.916656 
	C169.420807,301.814362 165.277969,300.788086 161.072113,299.722290 
z"/>
<path fill="#FFFFFF" opacity="1.000000" stroke="none" 
	d="
M89.000336,320.999725 
	C82.199791,320.999725 75.899124,320.999725 69.301758,320.999725 
	C69.301758,317.617401 69.301758,314.564148 69.301758,311.252625 
	C84.016914,311.252625 98.614792,311.252625 113.606697,311.252625 
	C113.606697,314.206390 113.606697,317.260956 113.606697,320.999725 
	C105.685051,320.999725 97.592628,320.999725 89.000336,320.999725 
z"/>
<path fill="#FFFFFF" opacity="1.000000" stroke="none" 
	d="
M172.023041,217.000305 
	C183.482941,217.000305 194.445770,217.000305 205.702316,217.000305 
	C205.702316,220.390945 205.702316,223.444199 205.702316,226.751312 
	C190.973846,226.751312 176.375473,226.751312 161.388199,226.751312 
	C161.388199,223.783905 161.388199,220.729309 161.388199,217.000305 
	C164.663223,217.000305 168.094589,217.000305 172.023041,217.000305 
z"/>
<path fill="#FFFFFF" opacity="1.000000" stroke="none" 
	d="
M129.966049,275.999725 
	C118.176506,275.999725 106.880661,275.999725 95.294403,275.999725 
	C95.294403,272.602325 95.294403,269.549011 95.294403,266.245422 
	C110.033951,266.245422 124.632957,266.245422 139.616333,266.245422 
	C139.616333,269.224701 139.616333,272.279358 139.616333,275.999725 
	C136.660538,275.999725 133.560135,275.999725 129.966049,275.999725 
z"/>
<path fill="#FFFFFF" opacity="1.000000" stroke="none" 
	d="
M258.000061,266.000275 
	C265.799683,266.000275 273.099365,266.000275 280.697540,266.000275 
	C280.697540,269.381287 280.697540,272.433960 280.697540,275.746704 
	C265.984558,275.746704 251.386688,275.746704 236.394043,275.746704 
	C236.394043,272.795013 236.394043,269.740417 236.394043,266.000275 
	C243.312469,266.000275 250.406281,266.000275 258.000061,266.000275 
z"/>
<path fill="#FFFFFF" opacity="1.000000" stroke="none" 
	d="
M163.263458,276.988953 
	C161.940689,273.976410 161.093018,270.971802 160.069962,267.345520 
	C170.942398,267.345520 180.667862,267.345520 190.698456,267.345520 
	C190.698456,270.383881 190.698456,273.437866 190.698456,276.996887 
	C181.634399,276.996887 172.686462,276.996887 163.263458,276.988953 
z"/>
<path fill="#FFFFFF" opacity="1.000000" stroke="none" 
	d="
M236.079712,299.748047 
	C236.021439,296.783813 236.021439,294.287445 236.021439,291.395844 
	C240.181000,291.395844 244.238678,291.395844 248.651413,291.395844 
	C248.651413,294.286621 248.651413,297.342407 248.651413,301.249939 
	C244.462708,300.903809 240.300354,300.559845 236.079712,299.748047 
z"/>
<path fill="#DA0010" opacity="1.000000" stroke="none" 
	d="
M269.326050,253.995361 
	C287.042419,253.698318 305.030609,253.721771 323.482361,253.709991 
	C322.762207,254.114365 321.580353,254.930771 320.394470,254.936661 
	C304.245880,255.017136 288.096710,254.994690 271.947784,254.953094 
	C271.163971,254.951080 270.381165,254.537689 269.326050,253.995361 
z"/>
<path fill="#DB0022" opacity="1.000000" stroke="none" 
	d="
M318.696838,309.212982 
	C300.967529,309.513275 282.965851,309.479126 264.497742,309.496124 
	C265.172974,309.035645 266.312225,308.084839 267.456726,308.078491 
	C283.694794,307.988403 299.933624,308.015106 316.172089,308.069183 
	C316.923767,308.071686 317.673676,308.596802 318.696838,309.212982 
z"/>
<path fill="#DB0022" opacity="1.000000" stroke="none" 
	d="
M323.696869,240.212982 
	C305.967529,240.513306 287.965790,240.479126 269.497620,240.496124 
	C270.172821,240.035660 271.312073,239.084763 272.456573,239.078430 
	C288.694733,238.988358 304.933624,239.015060 321.172180,239.069138 
	C321.923859,239.071640 322.673767,239.596771 323.696869,240.212982 
z"/>
<path fill="#DB0022" opacity="1.000000" stroke="none" 
	d="
M120.696899,235.212982 
	C102.967560,235.513306 84.965843,235.479111 66.497665,235.496094 
	C67.172890,235.035614 68.312157,234.084732 69.456665,234.078400 
	C85.694794,233.988342 101.933678,234.015045 118.172188,234.069138 
	C118.923859,234.071640 119.673782,234.596771 120.696899,235.212982 
z"/>
<path fill="#DE495C" opacity="1.000000" stroke="none" 
	d="
M172.395142,334.064148 
	C182.988434,334.028870 193.237839,334.028870 203.487259,334.028870 
	C203.487015,334.325439 203.486755,334.621979 203.486511,334.918549 
	C193.062775,334.918549 182.639053,334.919403 172.215332,334.909729 
	C172.073776,334.909576 171.804581,334.753021 171.812592,334.709351 
	C171.851196,334.498535 171.964462,334.301392 172.395142,334.064148 
z"/>
<path fill="#E04F63" opacity="1.000000" stroke="none" 
	d="
M170.009033,345.023865 
	C171.408875,344.683044 172.811066,344.039154 174.208176,344.050018 
	C184.253296,344.127991 194.297394,344.338867 204.198761,344.757812 
	C192.706833,345.013306 181.357925,345.018585 170.009033,345.023865 
z"/>
<path fill="#DB0033" opacity="1.000000" stroke="none" 
	d="
M170.332092,345.282745 
	C181.357925,345.018585 192.706833,345.013306 204.523346,345.015930 
	C202.928329,345.349213 200.864441,345.960083 198.803284,345.951050 
	C189.420151,345.909943 180.037796,345.694397 170.332092,345.282745 
z"/>
<path fill="#DD344C" opacity="1.000000" stroke="none" 
	d="
M132.000000,55.000000 
	C190.794128,55.000000 249.088272,55.000000 307.690918,55.000000 
	C307.690918,66.372757 307.690918,77.427017 307.690918,88.741852 
	C232.316315,88.741852 157.055771,88.741852 81.397491,88.741852 
	C81.397491,77.810799 81.397491,66.753998 81.397491,55.000000 
	C97.991768,55.000000 114.745888,55.000000 132.000000,55.000000 
z"/>
</svg>